<svg width="19" height="22" viewBox="0 0 19 22" fill="none" xmlns="http://www.w3.org/2000/svg">
<path d="M8.07814 13.127V15.1465C4.73206 15.1465 2.01954 17.859 2.01954 21.2051H0C0 16.7437 3.6167 13.127 8.07814 13.127ZM8.07814 12.1172C4.73076 12.1172 2.01954 9.40598 2.01954 6.0586C2.01954 2.71123 4.73076 0 8.07814 0C11.4255 0 14.1367 2.71123 14.1367 6.0586C14.1367 9.40598 11.4255 12.1172 8.07814 12.1172ZM8.07814 10.0977C10.3097 10.0977 12.1172 8.29019 12.1172 6.0586C12.1172 3.82702 10.3097 2.01953 8.07814 2.01953C5.84655 2.01953 4.03907 3.82702 4.03907 6.0586C4.03907 8.29019 5.84655 10.0977 8.07814 10.0977ZM10.6981 17.9855C10.6356 17.7225 10.6026 17.4482 10.6026 17.166C10.6026 16.884 10.6356 16.6097 10.698 16.3467L9.6967 15.7686L10.7065 14.0196L11.7085 14.5981C12.1054 14.2227 12.5894 13.9382 13.127 13.7782V12.6221H15.1465V13.7782C15.6841 13.9382 16.168 14.2227 16.5649 14.5981L17.567 14.0195L18.5769 15.7685L17.5755 16.3466C17.6379 16.6097 17.6709 16.884 17.6709 17.166C17.6709 17.4481 17.6379 17.7224 17.5755 17.9854L18.5769 18.5635L17.5671 20.3125L16.565 19.7339C16.1681 20.1094 15.6842 20.3939 15.1466 20.5538V21.71H13.1271V20.5539C12.5895 20.394 12.1055 20.1095 11.7086 19.734L10.7066 20.3126L9.6967 18.5636L10.6981 17.9855ZM14.1367 18.6807C14.9732 18.6807 15.6514 18.0025 15.6514 17.166C15.6514 16.3296 14.9732 15.6514 14.1367 15.6514C13.3003 15.6514 12.6221 16.3296 12.6221 17.166C12.6221 18.0025 13.3003 18.6807 14.1367 18.6807Z" fill="#702DD2"/>
</svg>
