<svg width="22" height="22" viewBox="0 0 22 22" fill="none" xmlns="http://www.w3.org/2000/svg">
<path d="M11.5789 13.883V16.0726C10.531 15.7373 9.40937 15.6345 8.30836 15.7727C7.20735 15.9109 6.15907 16.2862 5.25155 16.8669C4.34403 17.4476 3.60377 18.2169 3.09292 19.1101C2.58208 20.0033 2.31558 20.9943 2.31579 22L2.99265e-07 21.999C-0.00035908 20.7197 0.322961 19.4573 0.945188 18.3086C1.56741 17.1599 2.47203 16.1553 3.58973 15.3718C4.70742 14.5882 6.00852 14.0466 7.39334 13.7884C8.77815 13.5302 10.2099 13.5632 11.5789 13.883ZM9.26316 12.5714C5.42474 12.5714 2.31579 9.75857 2.31579 6.28571C2.31579 2.81286 5.42474 0 9.26316 0C13.1016 0 16.2105 2.81286 16.2105 6.28571C16.2105 9.75857 13.1016 12.5714 9.26316 12.5714ZM9.26316 10.4762C11.8221 10.4762 13.8947 8.60095 13.8947 6.28571C13.8947 3.97048 11.8221 2.09524 9.26316 2.09524C6.70421 2.09524 4.63158 3.97048 4.63158 6.28571C4.63158 8.60095 6.70421 10.4762 9.26316 10.4762ZM16.2105 16.7619V13.619H18.5263V16.7619H22V18.8571H18.5263V22H16.2105V18.8571H12.7368V16.7619H16.2105Z" fill="#702DD2"/>
</svg>
