<svg width="27" height="23" viewBox="0 0 27 23" fill="none" xmlns="http://www.w3.org/2000/svg">
<path d="M11.25 14.345V14.2675C11.25 11.1325 13.77 8.495 17.1912 7.72625C16.7362 4.84875 13.6987 2.5 9.875 2.5C5.725 2.5 2.5 5.26625 2.5 8.475C2.5 9.68625 2.95 10.85 3.8 11.8475C3.84 11.895 3.90375 11.965 3.99 12.0538C4.72488 12.809 5.1686 13.8001 5.2425 14.8513C6.13512 14.3352 7.17746 14.1403 8.19625 14.2988C8.40375 14.3313 8.57375 14.3563 8.7025 14.3738C9.54885 14.4837 10.4065 14.4748 11.25 14.345ZM11.8212 16.7838C10.6841 16.979 9.52405 17.0022 8.38 16.8525C8.1905 16.8269 8.00132 16.7989 7.8125 16.7688C7.34535 16.696 6.86747 16.7898 6.4625 17.0338L4.0825 18.4688C3.8992 18.5817 3.68455 18.6329 3.47 18.615C3.34024 18.6052 3.21369 18.5699 3.09761 18.5111C2.98152 18.4523 2.87819 18.3711 2.79353 18.2723C2.70887 18.1735 2.64456 18.0589 2.60427 17.9352C2.56398 17.8115 2.54851 17.681 2.55875 17.5513L2.74625 15.325C2.76961 15.0457 2.73271 14.7647 2.63804 14.501C2.54336 14.2372 2.39313 13.9969 2.1975 13.7963C2.0936 13.6903 1.99313 13.5811 1.89625 13.4688C0.70375 12.0688 0 10.3413 0 8.47375C0 3.79375 4.42125 0 9.875 0C14.95 0 19.1287 3.28375 19.6875 7.51C23.9025 7.70125 27.25 10.6538 27.25 14.2675C27.25 15.7588 26.68 17.1375 25.7137 18.255C25.65 18.33 25.5687 18.4175 25.47 18.5175C25.312 18.6766 25.1904 18.868 25.1136 19.0787C25.0367 19.2893 25.0065 19.5141 25.025 19.7375L25.1762 21.5163C25.1839 21.6205 25.1709 21.7253 25.1379 21.8246C25.1049 21.9238 25.0527 22.0156 24.9842 22.0945C24.9156 22.1735 24.8322 22.2382 24.7386 22.2848C24.645 22.3314 24.5431 22.3591 24.4387 22.3663C24.2651 22.3805 24.0914 22.3393 23.9425 22.2488L22.0137 21.1025C21.685 20.9079 21.2989 20.8333 20.9212 20.8913C20.7375 20.92 20.5837 20.9413 20.4612 20.9575C20.0662 21.0075 19.6612 21.035 19.25 21.035C15.8825 21.035 13.0025 19.275 11.8212 16.7838ZM20.5425 18.4213C21.2479 18.3127 21.9694 18.3876 22.6375 18.6388C22.8128 17.9298 23.1759 17.2812 23.6887 16.7613C23.7512 16.6988 23.7975 16.6488 23.8212 16.6213C24.4325 15.915 24.75 15.105 24.75 14.2675C24.75 12.0125 22.3712 10 19.25 10C16.1287 10 13.75 12.0125 13.75 14.2675C13.75 16.5225 16.1287 18.535 19.25 18.535C19.5512 18.535 19.85 18.515 20.1425 18.4775C20.2425 18.465 20.3775 18.4475 20.5425 18.4213Z" fill="#702DD2"/>
</svg>
