<svg width="30" height="30" viewBox="0 0 30 30" fill="none" xmlns="http://www.w3.org/2000/svg">
<g clip-path="url(#clip0_7_16)">
<path d="M14.25 17.345V17.2675C14.25 14.1325 16.77 11.495 20.1912 10.7263C19.7362 7.84875 16.6987 5.5 12.875 5.5C8.725 5.5 5.5 8.26625 5.5 11.475C5.5 12.6863 5.95 13.85 6.8 14.8475C6.84 14.895 6.90375 14.965 6.99 15.0538C7.72488 15.809 8.1686 16.8001 8.2425 17.8513C9.13512 17.3352 10.1775 17.1403 11.1962 17.2988C11.4037 17.3313 11.5737 17.3563 11.7025 17.3738C12.5488 17.4837 13.4065 17.4748 14.25 17.345ZM14.8212 19.7838C13.6841 19.979 12.524 20.0022 11.38 19.8525C11.1905 19.8269 11.0013 19.7989 10.8125 19.7688C10.3453 19.696 9.86748 19.7898 9.4625 20.0338L7.0825 21.4688C6.8992 21.5817 6.68455 21.6329 6.47 21.615C6.34024 21.6052 6.21369 21.5699 6.09761 21.5111C5.98152 21.4523 5.87819 21.3711 5.79353 21.2723C5.70887 21.1735 5.64456 21.0589 5.60427 20.9352C5.56398 20.8115 5.54851 20.681 5.55875 20.5513L5.74625 18.325C5.76961 18.0457 5.73271 17.7647 5.63804 17.501C5.54336 17.2372 5.39313 16.9969 5.1975 16.7963C5.0936 16.6903 4.99313 16.5811 4.89625 16.4688C3.70375 15.0688 3 13.3413 3 11.4738C3 6.79375 7.42125 3 12.875 3C17.95 3 22.1287 6.28375 22.6875 10.51C26.9025 10.7013 30.25 13.6538 30.25 17.2675C30.25 18.7588 29.68 20.1375 28.7137 21.255C28.65 21.33 28.5687 21.4175 28.47 21.5175C28.312 21.6766 28.1904 21.868 28.1136 22.0787C28.0367 22.2893 28.0065 22.5141 28.025 22.7375L28.1762 24.5163C28.1839 24.6205 28.1709 24.7253 28.1379 24.8246C28.1049 24.9238 28.0527 25.0156 27.9842 25.0945C27.9156 25.1735 27.8322 25.2382 27.7386 25.2848C27.645 25.3314 27.5431 25.3591 27.4387 25.3663C27.2651 25.3805 27.0914 25.3393 26.9425 25.2488L25.0137 24.1025C24.685 23.9079 24.2989 23.8333 23.9212 23.8913C23.7375 23.92 23.5837 23.9413 23.4612 23.9575C23.0662 24.0075 22.6612 24.035 22.25 24.035C18.8825 24.035 16.0025 22.275 14.8212 19.7838ZM23.5425 21.4213C24.2479 21.3127 24.9694 21.3876 25.6375 21.6388C25.8128 20.9298 26.1759 20.2812 26.6887 19.7613C26.7512 19.6988 26.7975 19.6488 26.8212 19.6213C27.4325 18.915 27.75 18.105 27.75 17.2675C27.75 15.0125 25.3712 13 22.25 13C19.1287 13 16.75 15.0125 16.75 17.2675C16.75 19.5225 19.1287 21.535 22.25 21.535C22.5512 21.535 22.85 21.515 23.1425 21.4775C23.2425 21.465 23.3775 21.4475 23.5425 21.4213Z" fill="#702DD2" fill-opacity="0.5"/>
</g>
<defs>
<clipPath id="clip0_7_16">
<rect width="30" height="30" fill="white"/>
</clipPath>
</defs>
</svg>
