<svg width="32" height="26" viewBox="0 0 32 26" fill="none" xmlns="http://www.w3.org/2000/svg">
<path d="M30.5282 18.9566C30.6582 18.2406 30.6582 17.5094 30.5282 16.7934L31.8184 16.0367C31.9684 15.9504 32.0334 15.7727 31.9834 15.6051C31.6483 14.5082 31.0733 13.5129 30.3232 12.6902C30.2082 12.5633 30.0232 12.5328 29.8732 12.6191L28.583 13.3758C28.038 12.9035 27.4129 12.5379 26.7378 12.2941V10.7809C26.7378 10.6082 26.6178 10.4559 26.4528 10.4203C25.3377 10.1664 24.2026 10.1766 23.1424 10.4203C22.9774 10.4559 22.8574 10.6082 22.8574 10.7809V12.2941C22.1823 12.5379 21.5573 12.9035 21.0122 13.3758L19.7221 12.6191C19.5771 12.5328 19.387 12.5633 19.272 12.6902C18.522 13.5129 17.9469 14.5082 17.6119 15.6051C17.5619 15.7727 17.6319 15.9504 17.7769 16.0367L19.067 16.7934C18.937 17.5094 18.937 18.2406 19.067 18.9566L17.7769 19.7133C17.6269 19.7996 17.5619 19.9773 17.6119 20.1449C17.9469 21.2418 18.522 22.232 19.272 23.0598C19.387 23.1867 19.5721 23.2172 19.7221 23.1309L21.0122 22.3742C21.5573 22.8465 22.1823 23.2121 22.8574 23.4559V24.9691C22.8574 25.1418 22.9774 25.2941 23.1424 25.3297C24.2576 25.5836 25.3927 25.5734 26.4528 25.3297C26.6178 25.2941 26.7378 25.1418 26.7378 24.9691V23.4559C27.4129 23.2121 28.038 22.8465 28.583 22.3742L29.8732 23.1309C30.0182 23.2172 30.2082 23.1867 30.3232 23.0598C31.0733 22.2371 31.6483 21.2418 31.9834 20.1449C32.0334 19.9773 31.9634 19.7996 31.8184 19.7133L30.5282 18.9566ZM24.8026 20.3379C23.4625 20.3379 22.3774 19.2309 22.3774 17.875C22.3774 16.5191 23.4675 15.4121 24.8026 15.4121C26.1378 15.4121 27.2279 16.5191 27.2279 17.875C27.2279 19.2309 26.1428 20.3379 24.8026 20.3379ZM11.2012 13C14.7366 13 17.6019 10.0902 17.6019 6.5C17.6019 2.90977 14.7366 0 11.2012 0C7.66581 0 4.80051 2.90977 4.80051 6.5C4.80051 10.0902 7.66581 13 11.2012 13ZM21.2622 24.502C21.1472 24.441 21.0322 24.3699 20.9222 24.3039L20.5272 24.5375C20.2271 24.7102 19.8871 24.8066 19.5471 24.8066C19.002 24.8066 18.4769 24.573 18.1019 24.1668C17.1868 23.1613 16.4867 21.9375 16.0917 20.6324C15.8167 19.7336 16.1867 18.784 16.9868 18.3117L17.3818 18.0781C17.3768 17.9461 17.3768 17.8141 17.3818 17.682L16.9868 17.4484C16.1867 16.9813 15.8167 16.0266 16.0917 15.1277C16.1367 14.9805 16.2017 14.8332 16.2517 14.6859C16.0617 14.6707 15.8767 14.625 15.6817 14.625H14.8466C13.7364 15.143 12.5013 15.4375 11.2012 15.4375C9.90104 15.4375 8.67092 15.143 7.5558 14.625H6.72071C3.01032 14.625 0 17.682 0 21.45V23.5625C0 24.9082 1.07511 26 2.40025 26H20.0021C20.5072 26 20.9772 25.8375 21.3623 25.5684C21.3022 25.3754 21.2622 25.1773 21.2622 24.9691V24.502Z" fill="white"/>
</svg>
