<svg width="14" height="12" viewBox="0 0 14 12" fill="none" xmlns="http://www.w3.org/2000/svg">
<path d="M8.14038 9.84615L6.53846 12L4.93654 9.84615H0.653846C0.480435 9.84615 0.314127 9.78132 0.191507 9.66591C0.0688871 9.55051 0 9.39398 0 9.23077V0.615385C0 0.452174 0.0688871 0.295649 0.191507 0.180242C0.314127 0.064835 0.480435 0 0.653846 0H12.4231C12.5965 0 12.7628 0.064835 12.8854 0.180242C13.008 0.295649 13.0769 0.452174 13.0769 0.615385V9.23077C13.0769 9.39398 13.008 9.55051 12.8854 9.66591C12.7628 9.78132 12.5965 9.84615 12.4231 9.84615H8.14038ZM7.45973 8.61538H11.7692V1.23077H1.30769V8.61538H5.61719L6.53846 9.85354L7.45973 8.61538Z" fill="#702DD2"/>
<path d="M4.24669 4.57143C4.64381 4.57143 4.96669 4.18705 4.96669 3.71429C4.96669 3.24152 4.64381 2.85714 4.24669 2.85714C3.84956 2.85714 3.52669 3.24152 3.52669 3.71429C3.52669 4.18705 3.84956 4.57143 4.24669 4.57143ZM9.28669 4.57143C9.68381 4.57143 10.0067 4.18705 10.0067 3.71429C10.0067 3.24152 9.68381 2.85714 9.28669 2.85714C8.88956 2.85714 8.56669 3.24152 8.56669 3.71429C8.56669 4.18705 8.88956 4.57143 9.28669 4.57143ZM9.64669 5H8.92669C8.72869 5 8.54981 5.09509 8.41931 5.24911C8.87269 5.54509 9.19444 6.07946 9.26419 6.71429H10.0067C10.2058 6.71429 10.3667 6.52277 10.3667 6.28571V5.85714C10.3667 5.38438 10.0438 5 9.64669 5ZM6.76669 5C7.46306 5 8.02669 4.32902 8.02669 3.5C8.02669 2.67098 7.46306 2 6.76669 2C6.07031 2 5.50669 2.67098 5.50669 3.5C5.50669 4.32902 6.07031 5 6.76669 5ZM7.63069 5.42857H7.53731C7.30331 5.5625 7.04344 5.64286 6.76669 5.64286C6.48994 5.64286 6.23119 5.5625 5.99606 5.42857H5.90269C5.18719 5.42857 4.60669 6.11964 4.60669 6.97143V7.35714C4.60669 7.71205 4.84856 8 5.14669 8H8.38669C8.68481 8 8.92669 7.71205 8.92669 7.35714V6.97143C8.92669 6.11964 8.34619 5.42857 7.63069 5.42857ZM5.11406 5.24911C4.98356 5.09509 4.80469 5 4.60669 5H3.88669C3.48956 5 3.16669 5.38438 3.16669 5.85714V6.28571C3.16669 6.52277 3.32756 6.71429 3.52669 6.71429H4.26806C4.33894 6.07946 4.66069 5.54509 5.11406 5.24911Z" fill="#702DD2"/>
</svg>
