<svg width="16" height="12" viewBox="0 0 16 12" fill="none" xmlns="http://www.w3.org/2000/svg">
<path d="M2.36281 5.14286C3.23164 5.14286 3.93802 4.37411 3.93802 3.42857C3.93802 2.48304 3.23164 1.71429 2.36281 1.71429C1.49399 1.71429 0.787604 2.48304 0.787604 3.42857C0.787604 4.37411 1.49399 5.14286 2.36281 5.14286ZM13.3893 5.14286C14.2581 5.14286 14.9645 4.37411 14.9645 3.42857C14.9645 2.48304 14.2581 1.71429 13.3893 1.71429C12.5204 1.71429 11.8141 2.48304 11.8141 3.42857C11.8141 4.37411 12.5204 5.14286 13.3893 5.14286ZM14.1769 6H12.6017C12.1685 6 11.7771 6.19018 11.4916 6.49821C12.4835 7.09018 13.1874 8.15893 13.34 9.42857H14.9645C15.4001 9.42857 15.7521 9.04554 15.7521 8.57143V7.71429C15.7521 6.76875 15.0457 6 14.1769 6ZM7.87604 6C9.39956 6 10.6327 4.65804 10.6327 3C10.6327 1.34196 9.39956 0 7.87604 0C6.35252 0 5.11943 1.34196 5.11943 3C5.11943 4.65804 6.35252 6 7.87604 6ZM9.76629 6.85714H9.56201C9.05006 7.125 8.48151 7.28571 7.87604 7.28571C7.27057 7.28571 6.70448 7.125 6.19008 6.85714H5.98579C4.42043 6.85714 3.15042 8.23929 3.15042 9.94286V10.7143C3.15042 11.4241 3.67959 12 4.33182 12H11.4203C12.0725 12 12.6017 11.4241 12.6017 10.7143V9.94286C12.6017 8.23929 11.3317 6.85714 9.76629 6.85714ZM4.26045 6.49821C3.97494 6.19018 3.5836 6 3.15042 6H1.57521C0.706382 6 0 6.76875 0 7.71429V8.57143C0 9.04554 0.351961 9.42857 0.787604 9.42857H2.40958C2.56464 8.15893 3.26856 7.09018 4.26045 6.49821Z" fill="#702DD2"/>
</svg>
