<svg width="19" height="21" viewBox="0 0 19 21" fill="none" xmlns="http://www.w3.org/2000/svg">
<path d="M13.6667 0.083374L18.875 5.29171V19.8678C18.875 20.4469 18.4115 20.9167 17.8406 20.9167H1.15937C0.588542 20.9167 0.125 20.4427 0.125 19.8834V1.11671C0.125 0.545874 0.590625 0.083374 1.16563 0.083374H13.6667ZM10.5417 8.41671H9.5V13.625H10.5417V8.41671ZM8.45833 8.41671H6.375C5.22396 8.41671 4.29167 9.349 4.29167 10.5V11.5417C4.29167 12.6928 5.22396 13.625 6.375 13.625H7.41667C7.99167 13.625 8.45833 13.1584 8.45833 12.5834V10.5H6.375V11.5417H7.41667V12.5834H6.375C5.8 12.5834 5.33333 12.1167 5.33333 11.5417V10.5C5.33333 9.92504 5.8 9.45837 6.375 9.45837H8.45833V8.41671ZM14.7083 8.41671H11.5833V13.625H12.625V11.5417H14.7083V10.5H12.625V9.45837H14.7083V8.41671Z" fill="#702DD2"/>
</svg>
