<svg width="22" height="22" viewBox="0 0 22 22" fill="none" xmlns="http://www.w3.org/2000/svg">
<path d="M10.7083 5.70738L3.66696 13.1651V21.2142C3.66696 21.4226 3.73134 21.6225 3.84593 21.7698C3.96053 21.9172 4.11596 22 4.27802 22L8.55776 21.9858C8.71929 21.9847 8.87394 21.9015 8.98787 21.7542C9.10181 21.607 9.16577 21.4077 9.16577 21.2V16.4994C9.16577 16.291 9.23015 16.0911 9.34474 15.9437C9.45934 15.7964 9.61477 15.7136 9.77683 15.7136H12.2211C12.3832 15.7136 12.5386 15.7964 12.6532 15.9437C12.7678 16.0911 12.8322 16.291 12.8322 16.4994V21.1965C12.8319 21.2999 12.8475 21.4024 12.8781 21.498C12.9087 21.5936 12.9537 21.6805 13.0105 21.7538C13.0672 21.827 13.1347 21.8851 13.2089 21.9247C13.2832 21.9644 13.3628 21.9848 13.4432 21.9848L17.7214 22C17.8835 22 18.0389 21.9172 18.1535 21.7698C18.2681 21.6225 18.3325 21.4226 18.3325 21.2142V13.1597L11.2927 5.70738C11.2099 5.62159 11.1068 5.57481 11.0005 5.57481C10.8942 5.57481 10.7911 5.62159 10.7083 5.70738ZM21.8308 10.7763L18.638 7.39194V0.589351C18.638 0.433046 18.5897 0.283142 18.5038 0.172617C18.4178 0.0620923 18.3013 0 18.1797 0H16.041C15.9195 0 15.8029 0.0620923 15.7169 0.172617C15.631 0.283142 15.5827 0.433046 15.5827 0.589351V4.15542L12.1634 0.537783C11.8353 0.190547 11.4235 0.000694131 10.9986 0.000694131C10.5736 0.000694131 10.1619 0.190547 9.83374 0.537783L0.166323 10.7763C0.119916 10.8256 0.0815212 10.8862 0.0533329 10.9546C0.0251445 11.023 0.00771497 11.0979 0.00204025 11.175C-0.00363448 11.2521 0.00255679 11.3299 0.0202603 11.4039C0.0379638 11.4779 0.0668326 11.5466 0.105217 11.6063L1.0791 13.1288C1.11738 13.1886 1.16446 13.2382 1.21766 13.2746C1.27085 13.3111 1.32911 13.3336 1.3891 13.3411C1.44909 13.3485 1.50962 13.3407 1.56725 13.318C1.62487 13.2953 1.67845 13.2582 1.72492 13.2088L10.7083 3.69376C10.7911 3.60797 10.8942 3.56119 11.0005 3.56119C11.1068 3.56119 11.2099 3.60797 11.2927 3.69376L20.2764 13.2088C20.3228 13.2582 20.3763 13.2953 20.4339 13.3181C20.4914 13.3409 20.5519 13.3488 20.6118 13.3415C20.6718 13.3342 20.73 13.3118 20.7832 13.2756C20.8364 13.2393 20.8835 13.1899 20.9219 13.1303L21.8958 11.6078C21.9341 11.5478 21.9629 11.4786 21.9803 11.4043C21.9978 11.33 22.0037 11.2519 21.9977 11.1747C21.9917 11.0974 21.9738 11.0224 21.9452 10.9541C21.9165 10.8857 21.8777 10.8253 21.8308 10.7763Z" fill="#702DD2" fill-opacity="0.5"/>
</svg>
