<svg width="31" height="24" viewBox="0 0 31 24" fill="none" xmlns="http://www.w3.org/2000/svg">
<path d="M29.45 0H7.75C7.33891 0 6.94467 0.158035 6.65398 0.43934C6.3633 0.720644 6.2 1.10218 6.2 1.5V6H13.95V3H23.25V18H29.45C29.8611 18 30.2553 17.842 30.546 17.5607C30.8367 17.2794 31 16.8978 31 16.5V1.5C31 1.10218 30.8367 0.720644 30.546 0.43934C30.2553 0.158035 29.8611 0 29.45 0ZM11.2375 4.82812C11.2375 4.94001 11.1916 5.04732 11.1098 5.12644C11.0281 5.20555 10.9172 5.25 10.8016 5.25H9.34844C9.23282 5.25 9.12194 5.20555 9.04018 5.12644C8.95843 5.04732 8.9125 4.94001 8.9125 4.82812V3.42188C8.9125 3.30999 8.95843 3.20268 9.04018 3.12356C9.12194 3.04445 9.23282 3 9.34844 3H10.8016C10.9172 3 11.0281 3.04445 11.1098 3.12356C11.1916 3.20268 11.2375 3.30999 11.2375 3.42188V4.82812ZM28.2875 14.5781C28.2875 14.69 28.2416 14.7973 28.1598 14.8764C28.0781 14.9556 27.9672 15 27.8516 15H26.3984C26.2828 15 26.1719 14.9556 26.0902 14.8764C26.0084 14.7973 25.9625 14.69 25.9625 14.5781V13.1719C25.9625 13.06 26.0084 12.9527 26.0902 12.8736C26.1719 12.7944 26.2828 12.75 26.3984 12.75H27.8516C27.9672 12.75 28.0781 12.7944 28.1598 12.8736C28.2416 12.9527 28.2875 13.06 28.2875 13.1719V14.5781ZM28.2875 9.70312C28.2875 9.81501 28.2416 9.92232 28.1598 10.0014C28.0781 10.0806 27.9672 10.125 27.8516 10.125H26.3984C26.2828 10.125 26.1719 10.0806 26.0902 10.0014C26.0084 9.92232 25.9625 9.81501 25.9625 9.70312V8.29688C25.9625 8.18499 26.0084 8.07768 26.0902 7.99856C26.1719 7.91945 26.2828 7.875 26.3984 7.875H27.8516C27.9672 7.875 28.0781 7.91945 28.1598 7.99856C28.2416 8.07768 28.2875 8.18499 28.2875 8.29688V9.70312ZM28.2875 4.82812C28.2875 4.94001 28.2416 5.04732 28.1598 5.12644C28.0781 5.20555 27.9672 5.25 27.8516 5.25H26.3984C26.2828 5.25 26.1719 5.20555 26.0902 5.12644C26.0084 5.04732 25.9625 4.94001 25.9625 4.82812V3.42188C25.9625 3.30999 26.0084 3.20268 26.0902 3.12356C26.1719 3.04445 26.2828 3 26.3984 3H27.8516C27.9672 3 28.0781 3.04445 28.1598 3.12356C28.2416 3.20268 28.2875 3.30999 28.2875 3.42188V4.82812ZM20.15 7.5H1.55C1.13891 7.5 0.744666 7.65804 0.453984 7.93934C0.163303 8.22064 0 8.60218 0 9L0 22.5C0 22.8978 0.163303 23.2794 0.453984 23.5607C0.744666 23.842 1.13891 24 1.55 24H20.15C20.5611 24 20.9553 23.842 21.246 23.5607C21.5367 23.2794 21.7 22.8978 21.7 22.5V9C21.7 8.60218 21.5367 8.22064 21.246 7.93934C20.9553 7.65804 20.5611 7.5 20.15 7.5ZM4.65 10.5C4.95656 10.5 5.25624 10.588 5.51113 10.7528C5.76603 10.9176 5.9647 11.1519 6.08201 11.426C6.19933 11.7001 6.23002 12.0017 6.17022 12.2926C6.11041 12.5836 5.96279 12.8509 5.74602 13.0607C5.52924 13.2704 5.25306 13.4133 4.95239 13.4712C4.65172 13.5291 4.34007 13.4994 4.05684 13.3858C3.77361 13.2723 3.53154 13.08 3.36122 12.8334C3.19091 12.5867 3.1 12.2967 3.1 12C3.1 11.6022 3.2633 11.2206 3.55398 10.9393C3.84467 10.658 4.23891 10.5 4.65 10.5ZM18.6 21H3.1V19.5L6.2 16.5L7.75 18L13.95 12L18.6 16.5V21Z" fill="#702DD2"/>
</svg>
