<svg width="22" height="22" viewBox="0 0 22 22" fill="none" xmlns="http://www.w3.org/2000/svg">
<path d="M22 2.2H4.88889C4.24058 2.2 3.61883 2.43179 3.16041 2.84437C2.70198 3.25695 2.44444 3.81652 2.44444 4.4C2.44444 4.98348 2.70198 5.54306 3.16041 5.95564C3.61883 6.36822 4.24058 6.6 4.88889 6.6H22V20.9C22 21.1917 21.8712 21.4715 21.642 21.6778C21.4128 21.8841 21.1019 22 20.7778 22H4.88889C3.59227 22 2.34877 21.5364 1.43192 20.7113C0.515078 19.8861 0 18.767 0 17.6V4.4C0 3.23305 0.515078 2.11389 1.43192 1.28873C2.34877 0.46357 3.59227 0 4.88889 0H20.7778C21.1019 0 21.4128 0.115892 21.642 0.322183C21.8712 0.528472 22 0.808262 22 1.1V2.2ZM20.7778 5.5H4.88889C4.56474 5.5 4.25386 5.38411 4.02465 5.17782C3.79544 4.97153 3.66667 4.69174 3.66667 4.4C3.66667 4.10826 3.79544 3.82847 4.02465 3.62218C4.25386 3.41589 4.56474 3.3 4.88889 3.3H20.7778V5.5Z" fill="#702DD2"/>
</svg>
