<svg width="21" height="4" viewBox="0 0 21 4" fill="none" xmlns="http://www.w3.org/2000/svg">
<path d="M1.6875 0C0.759375 0 0 0.759375 0 1.6875C0 2.61562 0.759375 3.375 1.6875 3.375C2.61562 3.375 3.375 2.61562 3.375 1.6875C3.375 0.759375 2.61562 0 1.6875 0ZM18.5625 0C17.6344 0 16.875 0.759375 16.875 1.6875C16.875 2.61562 17.6344 3.375 18.5625 3.375C19.4906 3.375 20.25 2.61562 20.25 1.6875C20.25 0.759375 19.4906 0 18.5625 0ZM10.125 0C9.19687 0 8.4375 0.759375 8.4375 1.6875C8.4375 2.61562 9.19687 3.375 10.125 3.375C11.0531 3.375 11.8125 2.61562 11.8125 1.6875C11.8125 0.759375 11.0531 0 10.125 0Z" fill="#001B44"/>
</svg>
