<svg width="22" height="22" viewBox="0 0 22 22" fill="none" xmlns="http://www.w3.org/2000/svg">
<path d="M11 12.8333V14.6667C7.96242 14.6667 5.49999 17.1291 5.49999 20.1667H3.66666C3.66666 16.1165 6.9499 12.8333 11 12.8333ZM11 11.9167C7.96124 11.9167 5.49999 9.45541 5.49999 6.41666C5.49999 3.37791 7.96124 0.916656 11 0.916656C14.0387 0.916656 16.5 3.37791 16.5 6.41666C16.5 9.45541 14.0387 11.9167 11 11.9167ZM11 10.0833C13.0258 10.0833 14.6667 8.44249 14.6667 6.41666C14.6667 4.39082 13.0258 2.74999 11 2.74999C8.97416 2.74999 7.33332 4.39082 7.33332 6.41666C7.33332 8.44249 8.97416 10.0833 11 10.0833ZM13.3784 17.2439C13.3216 17.0052 13.2917 16.7561 13.2917 16.5C13.2917 16.244 13.3216 15.9949 13.3783 15.7562L12.4693 15.2314L13.386 13.6437L14.2956 14.1688C14.6559 13.828 15.0953 13.5698 15.5833 13.4245V12.375H17.4167V13.4245C17.9047 13.5698 18.344 13.828 18.7043 14.1688L19.614 13.6436L20.5308 15.2313L19.6217 15.7561C19.6783 15.9949 19.7083 16.244 19.7083 16.5C19.7083 16.756 19.6783 17.0051 19.6217 17.2438L20.5308 17.7686L19.6141 19.3563L18.7044 18.8311C18.344 19.172 17.9048 19.4302 17.4167 19.5754V20.625H15.5834V19.5755C15.0954 19.4303 14.656 19.1721 14.2957 18.8312L13.3861 19.3564L12.4693 17.7687L13.3784 17.2439ZM16.5 17.875C17.2594 17.875 17.875 17.2594 17.875 16.5C17.875 15.7406 17.2594 15.125 16.5 15.125C15.7406 15.125 15.125 15.7406 15.125 16.5C15.125 17.2594 15.7406 17.875 16.5 17.875Z" fill="#702DD2"/>
</svg>
