<svg width="14" height="12" viewBox="0 0 14 12" fill="none" xmlns="http://www.w3.org/2000/svg">
<path d="M13.0939 0H3.44577C3.26299 0 3.0877 0.0790176 2.95846 0.21967C2.82922 0.360322 2.75661 0.551088 2.75661 0.75V3H6.20238V1.5H10.3373V9H13.0939C13.2767 9 13.452 8.92098 13.5812 8.78033C13.7105 8.63968 13.7831 8.44891 13.7831 8.25V0.75C13.7831 0.551088 13.7105 0.360322 13.5812 0.21967C13.452 0.0790176 13.2767 0 13.0939 0ZM4.99636 2.41406C4.99636 2.47001 4.97594 2.52366 4.93959 2.56322C4.90324 2.60278 4.85394 2.625 4.80254 2.625H4.15646C4.10505 2.625 4.05575 2.60278 4.0194 2.56322C3.98305 2.52366 3.96263 2.47001 3.96263 2.41406V1.71094C3.96263 1.65499 3.98305 1.60134 4.0194 1.56178C4.05575 1.52222 4.10505 1.5 4.15646 1.5H4.80254C4.85394 1.5 4.90324 1.52222 4.93959 1.56178C4.97594 1.60134 4.99636 1.65499 4.99636 1.71094V2.41406ZM12.5771 7.28906C12.5771 7.34501 12.5566 7.39866 12.5203 7.43822C12.4839 7.47778 12.4346 7.5 12.3832 7.5H11.7371C11.6857 7.5 11.6364 7.47778 11.6001 7.43822C11.5637 7.39866 11.5433 7.34501 11.5433 7.28906V6.58594C11.5433 6.52999 11.5637 6.47634 11.6001 6.43678C11.6364 6.39722 11.6857 6.375 11.7371 6.375H12.3832C12.4346 6.375 12.4839 6.39722 12.5203 6.43678C12.5566 6.47634 12.5771 6.52999 12.5771 6.58594V7.28906ZM12.5771 4.85156C12.5771 4.90751 12.5566 4.96116 12.5203 5.00072C12.4839 5.04028 12.4346 5.0625 12.3832 5.0625H11.7371C11.6857 5.0625 11.6364 5.04028 11.6001 5.00072C11.5637 4.96116 11.5433 4.90751 11.5433 4.85156V4.14844C11.5433 4.09249 11.5637 4.03884 11.6001 3.99928C11.6364 3.95972 11.6857 3.9375 11.7371 3.9375H12.3832C12.4346 3.9375 12.4839 3.95972 12.5203 3.99928C12.5566 4.03884 12.5771 4.09249 12.5771 4.14844V4.85156ZM12.5771 2.41406C12.5771 2.47001 12.5566 2.52366 12.5203 2.56322C12.4839 2.60278 12.4346 2.625 12.3832 2.625H11.7371C11.6857 2.625 11.6364 2.60278 11.6001 2.56322C11.5637 2.52366 11.5433 2.47001 11.5433 2.41406V1.71094C11.5433 1.65499 11.5637 1.60134 11.6001 1.56178C11.6364 1.52222 11.6857 1.5 11.7371 1.5H12.3832C12.4346 1.5 12.4839 1.52222 12.5203 1.56178C12.5566 1.60134 12.5771 1.65499 12.5771 1.71094V2.41406ZM8.959 3.75H0.689154C0.506379 3.75 0.33109 3.82902 0.201848 3.96967C0.0726071 4.11032 0 4.30109 0 4.5L0 11.25C0 11.4489 0.0726071 11.6397 0.201848 11.7803C0.33109 11.921 0.506379 12 0.689154 12H8.959C9.14177 12 9.31706 11.921 9.4463 11.7803C9.57554 11.6397 9.64815 11.4489 9.64815 11.25V4.5C9.64815 4.30109 9.57554 4.11032 9.4463 3.96967C9.31706 3.82902 9.14177 3.75 8.959 3.75ZM2.06746 5.25C2.20376 5.25 2.337 5.29399 2.45033 5.3764C2.56366 5.45881 2.652 5.57594 2.70416 5.71299C2.75632 5.85003 2.76996 6.00083 2.74337 6.14632C2.71678 6.2918 2.65115 6.42544 2.55477 6.53033C2.45839 6.63522 2.33559 6.70665 2.20191 6.73559C2.06823 6.76453 1.92966 6.74968 1.80373 6.69291C1.67781 6.63614 1.57018 6.54001 1.49445 6.41668C1.41873 6.29334 1.37831 6.14834 1.37831 6C1.37831 5.80109 1.45091 5.61032 1.58016 5.46967C1.7094 5.32902 1.88469 5.25 2.06746 5.25ZM8.26984 10.5H1.37831V9.75L2.75661 8.25L3.44577 9L6.20238 6L8.26984 8.25V10.5Z" fill="#702DD2"/>
</svg>
