<svg width="40" height="40" viewBox="0 0 40 40" fill="none" xmlns="http://www.w3.org/2000/svg">
<g clip-path="url(#clip0_14_221)">
<path d="M18.3334 18.3333V11.6667H21.6667V18.3333H28.3334V21.6667H21.6667V28.3333H18.3334V21.6667H11.6667V18.3333H18.3334ZM20.0001 36.6667C10.795 36.6667 3.33337 29.205 3.33337 20C3.33337 10.795 10.795 3.33331 20.0001 3.33331C29.2051 3.33331 36.6667 10.795 36.6667 20C36.6667 29.205 29.2051 36.6667 20.0001 36.6667ZM20.0001 33.3333C23.5363 33.3333 26.9277 31.9286 29.4281 29.4281C31.9286 26.9276 33.3334 23.5362 33.3334 20C33.3334 16.4638 31.9286 13.0724 29.4281 10.5719C26.9277 8.07141 23.5363 6.66665 20.0001 6.66665C16.4638 6.66665 13.0724 8.07141 10.572 10.5719C8.07147 13.0724 6.66671 16.4638 6.66671 20C6.66671 23.5362 8.07147 26.9276 10.572 29.4281C13.0724 31.9286 16.4638 33.3333 20.0001 33.3333Z" fill="#702DD2"/>
</g>
<defs>
<clipPath id="clip0_14_221">
<rect width="40" height="40" fill="white"/>
</clipPath>
</defs>
</svg>
