<svg width="22" height="22" viewBox="0 0 22 22" fill="none" xmlns="http://www.w3.org/2000/svg">
<path d="M0 1.21367C0.00201305 0.892684 0.11759 0.585466 0.321764 0.358377C0.525938 0.131289 0.802318 0.00256013 1.0912 0H20.9088C21.5116 0 22 0.543889 22 1.21367V20.7863C21.998 21.1073 21.8824 21.4145 21.6782 21.6416C21.4741 21.8687 21.1977 21.9974 20.9088 22H1.0912C0.801695 21.9997 0.524146 21.8717 0.319538 21.6441C0.11493 21.4165 -1.46801e-07 21.108 0 20.7863V1.21367ZM4.4 14.6667V17.1111H17.6V14.6667H4.4ZM4.4 4.88889V12.2222H11V4.88889H4.4ZM13.2 4.88889V7.33333H17.6V4.88889H13.2ZM13.2 9.77778V12.2222H17.6V9.77778H13.2ZM6.6 7.33333H8.8V9.77778H6.6V7.33333Z" fill="#702DD2" fill-opacity="0.5"/>
</svg>
