<svg width="24" height="16" viewBox="0 0 24 16" fill="none" xmlns="http://www.w3.org/2000/svg">
<path d="M22.3091 11.0453C22.4041 10.5416 22.4041 10.0272 22.3091 9.52355L23.2519 8.99129C23.3615 8.93056 23.409 8.80554 23.3725 8.68765C23.1276 7.91605 22.7074 7.2159 22.1593 6.6372C22.0752 6.54789 21.94 6.52646 21.8304 6.58718L20.8876 7.11945C20.4893 6.78723 20.0325 6.53003 19.5392 6.35856V5.29404C19.5392 5.17258 19.4515 5.06542 19.3309 5.04041C18.516 4.8618 17.6865 4.86894 16.9118 5.04041C16.7912 5.06542 16.7035 5.17258 16.7035 5.29404V6.35856C16.2102 6.53003 15.7534 6.78723 15.3551 7.11945L14.4123 6.58718C14.3063 6.52646 14.1675 6.54789 14.0834 6.6372C13.5353 7.2159 13.115 7.91605 12.8702 8.68765C12.8337 8.80554 12.8848 8.93056 12.9908 8.99129L13.9336 9.52355C13.8386 10.0272 13.8386 10.5416 13.9336 11.0453L12.9908 11.5776C12.8812 11.6383 12.8337 11.7633 12.8702 11.8812C13.115 12.6528 13.5353 13.3494 14.0834 13.9317C14.1675 14.021 14.3027 14.0424 14.4123 13.9817L15.3551 13.4494C15.7534 13.7816 16.2102 14.0388 16.7035 14.2103V15.2748C16.7035 15.3963 16.7912 15.5035 16.9118 15.5285C17.7267 15.7071 18.5562 15.6999 19.3309 15.5285C19.4515 15.5035 19.5392 15.3963 19.5392 15.2748V14.2103C20.0325 14.0388 20.4893 13.7816 20.8876 13.4494L21.8304 13.9817C21.9364 14.0424 22.0752 14.021 22.1593 13.9317C22.7074 13.353 23.1276 12.6528 23.3725 11.8812C23.409 11.7633 23.3578 11.6383 23.2519 11.5776L22.3091 11.0453ZM18.125 12.017C17.1457 12.017 16.3527 11.2382 16.3527 10.2844C16.3527 9.33065 17.1493 8.55191 18.125 8.55191C19.1007 8.55191 19.8973 9.33065 19.8973 10.2844C19.8973 11.2382 19.1043 12.017 18.125 12.017ZM3.50806 6.8551C4.79801 6.8551 5.84677 5.82987 5.84677 4.56888C5.84677 3.30788 4.79801 2.28265 3.50806 2.28265C2.21812 2.28265 1.16935 3.30788 1.16935 4.56888C1.16935 5.82987 2.21812 6.8551 3.50806 6.8551ZM11.6935 7.99821C11.763 7.99821 11.8287 7.98035 11.8982 7.97678C12.2015 7.20161 12.6473 6.47287 13.2247 5.86202C13.4951 5.57624 13.8788 5.41192 14.2807 5.41192C14.5329 5.41192 14.7814 5.47622 14.997 5.60125L15.2857 5.76557C15.3149 5.74771 15.3441 5.73342 15.3734 5.71556C15.6291 5.19402 15.7826 4.61532 15.7826 4.00089C15.7826 1.78969 13.9519 0 11.6899 0C9.42792 0 7.6008 1.78611 7.6008 3.99732C7.6008 6.20853 9.43157 7.99821 11.6935 7.99821ZM15.5378 14.9462C15.4537 14.9033 15.3697 14.8533 15.2893 14.8069C14.9897 14.9783 14.7302 15.157 14.2844 15.157C13.8861 15.157 13.5024 14.9926 13.2283 14.7069C12.5596 13.9996 12.048 13.1386 11.7593 12.2206C11.3683 10.9882 12.6692 10.4452 12.7021 10.4238C12.6985 10.3309 12.6985 10.238 12.7021 10.1451L12.4134 9.9808C12.2746 9.90221 12.1576 9.80219 12.0553 9.69145C11.9347 9.69859 11.8178 9.71288 11.6972 9.71288C10.7983 9.71288 9.95778 9.49855 9.19405 9.14133H8.89075C6.563 9.14133 4.67742 10.9846 4.67742 13.2565V14.2853C4.67742 15.232 5.46308 16 6.43145 16H15.7644C15.6291 15.7857 15.5378 15.5428 15.5378 15.2748V14.9462ZM6.32547 8.66265C5.90158 8.25184 5.32056 7.99821 4.67742 7.99821H2.33871C1.04876 7.99821 0 9.02344 0 10.2844V11.4276C0 12.0598 0.522555 12.5707 1.16935 12.5707H3.57749C3.80771 10.8774 4.85282 9.45211 6.32547 8.66265Z" fill="#702DD2"/>
</svg>
