<svg width="53" height="53" viewBox="0 0 53 53" fill="none" xmlns="http://www.w3.org/2000/svg">
<path d="M26.5 0C11.8609 0 0 11.8609 0 26.5C0 41.1391 11.8609 53 26.5 53C41.1391 53 53 41.1391 53 26.5C53 11.8609 41.1391 0 26.5 0ZM26.5 10.2581C31.6931 10.2581 35.9032 14.4681 35.9032 19.6613C35.9032 24.8544 31.6931 29.0645 26.5 29.0645C21.3069 29.0645 17.0968 24.8544 17.0968 19.6613C17.0968 14.4681 21.3069 10.2581 26.5 10.2581ZM26.5 47.0161C20.2276 47.0161 14.6071 44.1738 10.8458 39.7286C12.8546 35.946 16.7869 33.3387 21.371 33.3387C21.6274 33.3387 21.8839 33.3815 22.1296 33.4563C23.5188 33.905 24.972 34.1935 26.5 34.1935C28.028 34.1935 29.4919 33.905 30.8704 33.4563C31.1161 33.3815 31.3726 33.3387 31.629 33.3387C36.2131 33.3387 40.1454 35.946 42.1542 39.7286C38.3929 44.1738 32.7724 47.0161 26.5 47.0161Z" fill="#702DD2"/>
</svg>
