<svg width="18" height="25" viewBox="0 0 18 25" fill="none" xmlns="http://www.w3.org/2000/svg">
<path d="M16.4062 9.375H15.625C15.1934 9.375 14.8438 9.72461 14.8438 10.1562V12.5C14.8438 16.1523 11.6948 19.083 7.96924 18.7197C4.72217 18.4028 2.34375 15.4839 2.34375 12.2217V10.1562C2.34375 9.72461 1.99414 9.375 1.5625 9.375H0.78125C0.349609 9.375 0 9.72461 0 10.1562V12.1172C0 16.4941 3.12354 20.396 7.42188 20.9888V22.6562H4.6875C4.25586 22.6562 3.90625 23.0059 3.90625 23.4375V24.2188C3.90625 24.6504 4.25586 25 4.6875 25H12.5C12.9316 25 13.2812 24.6504 13.2812 24.2188V23.4375C13.2812 23.0059 12.9316 22.6562 12.5 22.6562H9.76562V21.0073C13.9507 20.4331 17.1875 16.8408 17.1875 12.5V10.1562C17.1875 9.72461 16.8379 9.375 16.4062 9.375ZM8.59375 17.1875C11.1826 17.1875 13.2812 15.0889 13.2812 12.5H9.11475C8.82715 12.5 8.59375 12.3252 8.59375 12.1094V11.3281C8.59375 11.1123 8.82715 10.9375 9.11475 10.9375H13.2812V9.375H9.11475C8.82715 9.375 8.59375 9.2002 8.59375 8.98438V8.20312C8.59375 7.9873 8.82715 7.8125 9.11475 7.8125H13.2812V6.25H9.11475C8.82715 6.25 8.59375 6.0752 8.59375 5.85938V5.07812C8.59375 4.8623 8.82715 4.6875 9.11475 4.6875H13.2812C13.2812 2.09863 11.1826 0 8.59375 0C6.00488 0 3.90625 2.09863 3.90625 4.6875V12.5C3.90625 15.0889 6.00488 17.1875 8.59375 17.1875Z" fill="#702DD2"/>
</svg>
